# xmcd CD database file
#
# Track frame offsets:
#	150
#	17834
#	31190
#	51298
#	67648
#	85761
#	102989
#	118130
#	140260
#	156818
#	172061
#	188891
#
# Disc length: 2694 seconds
#
# Revision: 0
# Processed by: cddbd v1.5.2PL0 Copyright (c) Steve Scherf et al.
# Submitted via: CDex 1.70beta2
#
DISCID=980a840c
DTITLE=Tania Kernaghan - Dancing on Water
DYEAR=1999
DGENRE=Country
TTITLE0=tania kernaghan - when i ride
TTITLE1=tania kernaghan - true country
TTITLE2=tania kernaghan - tell him he's dreaming
TTITLE3=tania kernaghan - sandy creek
TTITLE4=tania kernaghan - rain on a tin roof
TTITLE5=tania kernaghan - like the sun dances on water
TTITLE6=tania kernaghan - if you're leavin'
TTITLE7=tania kernaghan - high waving heather
TTITLE8=tania kernaghan - goin' off
TTITLE9=tania kernaghan - dunroamin' station
TTITLE10=tania kernaghan - cowboy up
TTITLE11=tania kernaghan - chasin' the train
EXTD=YEAR: 1999
EXTT0=
EXTT1=
EXTT2=
EXTT3=
EXTT4=
EXTT5=
EXTT6=
EXTT7=
EXTT8=
EXTT9=
EXTT10=
EXTT11=
PLAYORDER=
